<svg xmlns="http://www.w3.org/2000/svg" version="1.1" xmlns:xlink="http://www.w3.org/1999/xlink" xmlns:svgjs="http://svgjs.dev/svgjs" width="2000" height="1500" viewBox="0 0 2000 1500"><rect width="2000" height="1500" fill="#ffffff"></rect><g transform="matrix(0.75,0,0,0.75,247.3309608540925,3)"><svg viewBox="0 0 281 280" data-background-color="#ffffff" preserveAspectRatio="xMidYMid meet" height="1992" width="2000" xmlns="http://www.w3.org/2000/svg" xmlns:xlink="http://www.w3.org/1999/xlink"><g id="tight-bounds" transform="matrix(1,0,0,1,0.5,0)"><svg viewBox="0 0 280 280" height="280" width="280"><g><svg viewBox="0 0 280 280" height="280" width="280"><g><svg viewBox="0 0 280 280" height="280" width="280"><g id="textblocktransform"><svg viewBox="0 0 280 280" height="280" width="280" id="textblock"><g><svg viewBox="0 0 280 280" height="280" width="280"><g transform="matrix(1,0,0,1,57.50420910654779,57.50420886156945)"><svg viewBox="0 0 164.99158178690442 164.9915822768611" height="164.9915822768611" width="164.99158178690442"><g id="icon-0"><svg xmlns="http://www.w3.org/2000/svg" xmlns:xlink="http://www.w3.org/1999/xlink" version="1.1" viewBox="4 4 88 88.00000026132355" x="0" y="0" height="164.9915822768611" width="164.99158178690442" class="icon-jxe-0" data-fill-palette-color="accent" id="jxe-0"><path d="M34 92C32.896 92 32 91.108 32 90 32 87.584 27.456 81.632 23.06 75.884 14.568 64.764 4 50.936 4 38 4 20.988 17.604 17.048 26.608 14.44L28.848 13.784A2 2 0 1 1 30.012 17.612L27.724 18.284C18.48 20.956 8.004 23.988 8.004 38 8.004 49.576 18.116 62.816 26.244 73.444 31.912 80.86 36.004 86.216 36.004 90.004A2.003 2.003 0 0 1 34 92" fill="#03045e" data-fill-palette-color="accent"></path><path d="M62 92A2 2 0 0 1 60 90C60 86.228 64.092 80.868 69.756 73.444 77.892 62.812 88 49.58 88 38 88 24 77.532 20.964 68.296 18.288 67.404 18.032 66.544 17.78 65.724 17.532A2.01 2.01 0 0 1 64.4 15.032 1.997 1.997 0 0 1 66.9 13.708C67.704 13.96 68.544 14.196 69.416 14.448 78.408 17.056 92 21.004 92 38.008 92 50.928 81.428 64.764 72.936 75.884 68.544 81.64 64 87.584 64 90.008 64 91.108 63.1 92 62 92" fill="#03045e" data-fill-palette-color="accent"></path><path d="M47.98 39.964C37.22 39.964 28 27.744 28 17.736 28 8.876 35.096 4 47.98 4S67.96 8.88 67.96 17.74C67.956 27.744 58.744 39.964 47.98 39.964M47.98 8C40.692 8 32 9.688 32 17.736 32 25.768 39.524 35.968 47.98 35.968S63.96 25.776 63.96 17.736C63.956 9.688 55.264 8 47.98 8" fill="#03045e" data-fill-palette-color="accent"></path><path d="M48 48C46.896 48 46 47.108 46 46V38C46 36.9 46.896 36 48 36S50 36.9 50 38V46C50 47.112 49.104 48 48 48" fill="#03045e" data-fill-palette-color="accent"></path><path d="M52.252 52.416A2 2 0 0 1 50.252 50.416C50.252 49.176 49.248 48.168 48 48.168S45.748 49.172 45.748 50.416C45.748 51.524 44.852 52.416 43.748 52.416S41.748 51.524 41.748 50.416C41.748 46.98 44.552 44.168 48 44.168 51.444 44.168 54.252 46.972 54.252 50.416 54.252 51.524 53.356 52.416 52.252 52.416" fill="#03045e" data-fill-palette-color="accent"></path><path d="M42 23.984C41.512 23.984 41.02 23.808 40.636 23.448L36.636 19.72A2 2 0 0 1 36.536 16.892 2 2 0 0 1 39.364 16.792L43.364 20.52C44.172 21.276 44.216 22.544 43.464 23.348 43.068 23.768 42.536 23.984 42 23.984" fill="#03045e" data-fill-palette-color="accent"></path><path d="M54 23.984A2.001 2.001 0 0 1 52.636 20.52L56.636 16.792A2.003 2.003 0 0 1 59.464 16.884C60.216 17.696 60.172 18.964 59.364 19.712L55.364 23.448C54.98 23.808 54.488 23.984 54 23.984" fill="#03045e" data-fill-palette-color="accent"></path></svg></g></svg></g><g id="text-0"><path d="M144.002 6.761v0c0.009 0.538-0.081 1.044-0.27 1.519-0.196 0.475-0.465 0.89-0.808 1.245-0.35 0.354-0.756 0.637-1.218 0.848-0.462 0.211-0.961 0.321-1.499 0.329v0c-0.538 0.009-1.04-0.085-1.508-0.281-0.468-0.196-0.883-0.465-1.245-0.808-0.354-0.343-0.637-0.749-0.848-1.218-0.204-0.469-0.31-0.972-0.319-1.51v0c-0.008-0.523 0.082-1.022 0.27-1.497 0.196-0.475 0.465-0.89 0.808-1.245 0.35-0.347 0.756-0.626 1.218-0.837 0.461-0.218 0.961-0.332 1.499-0.34v0c0.538-0.009 1.04 0.089 1.509 0.291 0.468 0.196 0.883 0.462 1.244 0.798 0.354 0.343 0.637 0.749 0.848 1.218 0.204 0.469 0.31 0.965 0.319 1.488z" fill="#ffffff" data-fill-palette-color="primary"></path><path d="M140.875 276.144v0c0 0.123-0.023 0.24-0.067 0.349-0.044 0.109-0.106 0.203-0.186 0.283-0.087 0.08-0.182 0.141-0.284 0.184-0.109 0.05-0.226 0.075-0.349 0.075v0c-0.123 0-0.24-0.026-0.349-0.078-0.109-0.044-0.203-0.106-0.282-0.186-0.08-0.08-0.145-0.175-0.195-0.284-0.043-0.109-0.065-0.225-0.064-0.349v0c0-0.123 0.023-0.24 0.066-0.349 0.051-0.109 0.117-0.203 0.198-0.282 0.08-0.08 0.175-0.141 0.284-0.184 0.109-0.05 0.226-0.075 0.349-0.075v0c0.123 0 0.24 0.026 0.348 0.077 0.102 0.044 0.196 0.106 0.283 0.186 0.08 0.08 0.141 0.175 0.184 0.284 0.043 0.109 0.065 0.225 0.064 0.349z" fill="#ffffff" data-fill-palette-color="primary"></path><path d="M0 135.892c0-1.485 1.204-2.689 2.689-2.69 1.485 0 2.689 1.204 2.689 2.69 0 1.485-1.204 2.689-2.689 2.689-1.485 0-2.689-1.204-2.689-2.689z" fill="#ffffff" data-fill-palette-color="primary"></path><path d="M274.622 135.892c0-1.485 1.204-2.689 2.689-2.69 1.485 0 2.689 1.204 2.689 2.69 0 1.485-1.204 2.689-2.689 2.689-1.485 0-2.689-1.204-2.689-2.689z" fill="#ffffff" data-fill-palette-color="primary"></path></g><g id="text-1"></g></svg></g></svg></g></svg></g></svg></g><defs></defs></svg><rect width="280" height="280" fill="none" stroke="none" visibility="hidden"></rect></g></svg></g></svg>